<svg width="22" height="22" viewBox="0 0 22 22" fill="none" xmlns="http://www.w3.org/2000/svg">
<path d="M10.083 15.5833H11.9163V10.0833H10.083V15.5833ZM10.9997 8.25C11.2594 8.25 11.4773 8.16199 11.6533 7.98599C11.8286 7.81061 11.9163 7.59305 11.9163 7.33333C11.9163 7.07361 11.8286 6.85575 11.6533 6.67975C11.4773 6.50436 11.2594 6.41666 10.9997 6.41666C10.74 6.41666 10.5224 6.50436 10.347 6.67975C10.171 6.85575 10.083 7.07361 10.083 7.33333C10.083 7.59305 10.171 7.81061 10.347 7.98599C10.5224 8.16199 10.74 8.25 10.9997 8.25ZM10.9997 20.1667C9.73162 20.1667 8.53995 19.9259 7.42467 19.4443C6.3094 18.9634 5.33926 18.3104 4.51426 17.4854C3.68926 16.6604 3.03629 15.6903 2.55534 14.575C2.07379 13.4597 1.83301 12.2681 1.83301 11C1.83301 9.73194 2.07379 8.54027 2.55534 7.425C3.03629 6.30972 3.68926 5.33958 4.51426 4.51458C5.33926 3.68958 6.3094 3.0363 7.42467 2.55474C8.53995 2.0738 9.73162 1.83333 10.9997 1.83333C12.2677 1.83333 13.4594 2.0738 14.5747 2.55474C15.69 3.0363 16.6601 3.68958 17.4851 4.51458C18.3101 5.33958 18.9631 6.30972 19.444 7.425C19.9256 8.54027 20.1663 9.73194 20.1663 11C20.1663 12.2681 19.9256 13.4597 19.444 14.575C18.9631 15.6903 18.3101 16.6604 17.4851 17.4854C16.6601 18.3104 15.69 18.9634 14.5747 19.4443C13.4594 19.9259 12.2677 20.1667 10.9997 20.1667Z" fill="#4376BE"/>
</svg>
